<svg width="32" height="33" viewBox="0 0 32 33" fill="none" xmlns="http://www.w3.org/2000/svg">
<g clip-path="url(#clip0_395_1251)">
<path fill-rule="evenodd" clip-rule="evenodd" d="M9.40364 -0.925898C11.1098 -1.0121 11.6538 -1.03125 16 -1.03125C20.3462 -1.03125 20.8902 -1.0105 22.5949 -0.925898C24.2996 -0.841296 25.4633 -0.542798 26.4815 -0.110215C27.5476 0.331946 28.5149 1.02312 29.3149 1.91702C30.1295 2.79336 30.7578 3.85327 31.1593 5.02492C31.5549 6.14229 31.8255 7.41929 31.904 9.2869C31.9825 11.1625 32 11.7595 32 16.5275C32 21.2971 31.9811 21.8941 31.904 23.7665C31.8269 25.6341 31.5549 26.9111 31.1593 28.0284C30.7578 29.2002 30.1284 30.2619 29.3149 31.1395C28.5149 32.0334 27.5476 32.723 26.4815 33.1636C25.4633 33.5978 24.2996 33.8947 22.5978 33.9809C20.8902 34.0671 20.3462 34.0862 16 34.0862C11.6538 34.0862 11.1098 34.0655 9.40364 33.9809C7.70182 33.8963 6.53818 33.5978 5.52 33.1636C4.45225 32.723 3.48483 32.0322 2.68509 31.1395C1.8711 30.2627 1.24119 29.2015 0.839273 28.03C0.445091 26.9127 0.174545 25.6357 0.096 23.7681C0.0174545 21.8925 0 21.2955 0 16.5275C0 11.7579 0.0189091 11.1609 0.096 9.29009C0.173091 7.41929 0.445091 6.14229 0.839273 5.02492C1.24178 3.8534 1.87217 2.79226 2.68655 1.91542C3.48515 1.02233 4.4516 0.331057 5.51855 -0.110215C6.53673 -0.542798 7.70036 -0.8397 9.40218 -0.925898H9.40364ZM22.4655 2.23467C20.7782 2.15007 20.272 2.13251 16 2.13251C11.728 2.13251 11.2218 2.15007 9.53455 2.23467C7.97382 2.31289 7.12727 2.59862 6.56291 2.83965C5.81673 3.1589 5.28291 3.53721 4.72291 4.15177C4.19207 4.71852 3.78354 5.40847 3.52727 6.17102C3.30764 6.79037 3.04727 7.71938 2.976 9.43216C2.89891 11.2838 2.88291 11.8393 2.88291 16.5275C2.88291 21.2157 2.89891 21.7712 2.976 23.6228C3.04727 25.3356 3.30764 26.2646 3.52727 26.8839C3.78327 27.6453 4.192 28.3365 4.72291 28.9032C5.23927 29.4858 5.86909 29.9344 6.56291 30.2153C7.12727 30.4563 7.97382 30.7421 9.53455 30.8203C11.2218 30.9049 11.7265 30.9224 16 30.9224C20.2735 30.9224 20.7782 30.9049 22.4655 30.8203C24.0262 30.7421 24.8727 30.4563 25.4371 30.2153C26.1833 29.8961 26.7171 29.5177 27.2771 28.9032C27.808 28.3365 28.2167 27.6453 28.4727 26.8839C28.6924 26.2646 28.9527 25.3356 29.024 23.6228C29.1011 21.7712 29.1171 21.2157 29.1171 16.5275C29.1171 11.8393 29.1011 11.2838 29.024 9.43216C28.9527 7.71938 28.6924 6.79037 28.4727 6.17102C28.1818 5.35215 27.8371 4.76632 27.2771 4.15177C26.7606 3.56925 26.1319 3.12093 25.4371 2.83965C24.8727 2.59862 24.0262 2.31289 22.4655 2.23467ZM13.9564 21.9404C15.0977 22.4617 16.3686 22.5321 17.5519 22.1394C18.7352 21.7468 19.7577 20.9154 20.4445 19.7874C21.1314 18.6594 21.4401 17.3046 21.3179 15.9546C21.1957 14.6045 20.6502 13.3429 19.7745 12.3852C19.2163 11.773 18.5414 11.3043 17.7983 11.0127C17.0552 10.7211 16.2624 10.614 15.4771 10.699C14.6917 10.784 13.9333 11.059 13.2564 11.5043C12.5796 11.9496 12.0011 12.554 11.5626 13.2741C11.1242 13.9942 10.8366 14.812 10.7208 15.6686C10.6049 16.5253 10.6635 17.3995 10.8924 18.2283C11.1214 19.0571 11.5149 19.8199 12.0447 20.4618C12.5745 21.1037 13.2274 21.6086 13.9564 21.9404ZM10.1847 10.1457C10.9484 9.30761 11.855 8.64282 12.8528 8.18926C13.8506 7.7357 14.92 7.50225 16 7.50225C17.08 7.50225 18.1494 7.7357 19.1472 8.18926C20.145 8.64282 21.0516 9.30761 21.8153 10.1457C22.5789 10.9837 23.1847 11.9787 23.598 13.0737C24.0113 14.1687 24.224 15.3423 24.224 16.5275C24.224 17.7127 24.0113 18.8863 23.598 19.9813C23.1847 21.0763 22.5789 22.0712 21.8153 22.9093C20.273 24.6018 18.1812 25.5527 16 25.5527C13.8188 25.5527 11.727 24.6018 10.1847 22.9093C8.64242 21.2167 7.77596 18.9211 7.77596 16.5275C7.77596 14.1338 8.64242 11.8382 10.1847 10.1457ZM26.048 8.84633C26.2372 8.65042 26.3887 8.41484 26.4935 8.15352C26.5983 7.8922 26.6543 7.61047 26.6581 7.325C26.6619 7.03953 26.6134 6.75612 26.5156 6.49156C26.4178 6.22701 26.2726 5.98667 26.0887 5.78479C25.9047 5.58291 25.6857 5.42359 25.4446 5.31626C25.2036 5.20893 24.9453 5.15577 24.6852 5.15993C24.4251 5.16409 24.1683 5.22549 23.9302 5.34049C23.6921 5.45549 23.4774 5.62175 23.2989 5.82942C22.9517 6.23332 22.7616 6.76981 22.769 7.325C22.7764 7.88019 22.9806 8.41036 23.3384 8.80298C23.6962 9.1956 24.1793 9.41975 24.6852 9.42785C25.1911 9.43594 25.68 9.22734 26.048 8.84633Z" fill="#CF9E0E"/>
</g>
<defs>
<clipPath id="clip0_395_1251">
<rect width="32" height="33" fill="white"/>
</clipPath>
</defs>
</svg>
