<svg width="72" height="71" viewBox="0 0 72 71" fill="none" xmlns="http://www.w3.org/2000/svg">
<path d="M45.2158 44.418L55.3528 34.4259C55.9438 33.8435 56.6454 33.3816 57.4175 33.0665C58.1896 32.7514 59.0172 32.5893 59.8528 32.5895H60.2158C61.8071 32.5895 63.3332 33.2126 64.4585 34.3217C65.5837 35.4309 66.2158 36.9352 66.2158 38.5038C66.2158 40.0723 65.5837 41.5766 64.4585 42.6858C63.3332 43.7949 61.8071 44.418 60.2158 44.418H12.2158C10.6245 44.418 9.0984 43.7949 7.97318 42.6858C6.84796 41.5766 6.21582 40.0723 6.21582 38.5038C6.21582 36.9352 6.84796 35.4309 7.97318 34.3217C9.0984 33.2126 10.6245 32.5895 12.2158 32.5895H25.7608C30.5339 32.5897 35.1115 34.4586 38.4868 37.7852L45.2158 44.418ZM9.21582 44.418H63.2158V50.3323C63.2158 52.6852 62.2676 54.9417 60.5798 56.6054C58.892 58.2691 56.6028 59.2038 54.2158 59.2038H18.2158C15.8289 59.2038 13.5397 58.2691 11.8519 56.6054C10.164 54.9417 9.21582 52.6852 9.21582 50.3323V44.418Z" stroke="#CF9E0E" stroke-width="5" stroke-linecap="round" stroke-linejoin="round"/>
<path d="M21.2188 23.7181H21.2158M45.2188 20.761H45.2158M36.2188 23.7181H36.2158M36.2158 11.8895C22.3468 11.8895 10.9198 17.0823 9.38981 29.6324C9.19181 31.2588 10.5598 32.5895 12.2158 32.5895H60.2158C61.8718 32.5895 63.2398 31.2588 63.0418 29.6324C61.5118 17.0823 50.0848 11.8895 36.2158 11.8895Z" stroke="#CF9E0E" stroke-width="5" stroke-linecap="round" stroke-linejoin="round"/>
</svg>
