<svg width="34" height="30" viewBox="0 0 34 30" fill="none" xmlns="http://www.w3.org/2000/svg">
<g clip-path="url(#clip0_395_1238)">
<path fill-rule="evenodd" clip-rule="evenodd" d="M23.3317 18.1523C22.9325 17.9642 20.9751 17.058 20.6107 16.9318C20.2463 16.8068 19.981 16.745 19.7144 17.1211C19.4491 17.4947 18.6868 18.3403 18.4551 18.5902C18.2219 18.8414 17.9902 18.8717 17.5923 18.6849C17.1943 18.4956 15.9109 18.1005 14.3903 16.8232C13.2073 15.8286 12.4074 14.6006 12.1756 14.2245C11.9439 13.8496 12.1502 13.6464 12.3498 13.4596C12.5293 13.2917 12.7477 13.0216 12.9473 12.8033C13.147 12.5837 13.2126 12.4272 13.3452 12.176C13.4792 11.9261 13.4122 11.7077 13.3118 11.5197C13.2126 11.3316 12.4168 9.48509 12.0845 8.73411C11.7617 8.00333 11.4334 8.10304 11.1896 8.09042C10.9565 8.08032 10.6912 8.07779 10.4259 8.07779C10.1607 8.07779 9.72926 8.17119 9.36485 8.54731C8.9991 8.92217 7.97151 9.82965 7.97151 11.6762C7.97151 13.5214 9.39701 15.3048 9.59663 15.556C9.79625 15.8059 12.4034 19.5949 16.3972 21.2193C17.3484 21.6055 18.0893 21.8365 18.6667 22.0081C19.6206 22.2946 20.4888 22.2542 21.1747 22.157C21.9384 22.0498 23.53 21.2496 23.8623 20.3736C24.1932 19.4977 24.1932 18.7467 24.0941 18.5902C23.9949 18.4337 23.7296 18.3403 23.3304 18.1523H23.3317ZM16.0676 27.4959H16.0623C13.6901 27.4963 11.3616 26.8956 9.32064 25.7567L8.83833 25.4866L3.82499 26.726L5.1634 22.1217L4.84855 21.6497C3.52239 19.661 2.82057 17.3593 2.82419 15.0108C2.82687 8.13207 8.76732 2.53571 16.073 2.53571C19.6099 2.53571 22.9352 3.83572 25.4352 6.19341C26.6682 7.35027 27.6456 8.72599 28.3106 10.241C28.9757 11.756 29.3153 13.3802 29.3097 15.0196C29.307 21.8983 23.3666 27.4959 16.0676 27.4959ZM27.3376 4.40242C25.8614 3.0026 24.1051 1.89269 22.1703 1.13699C20.2355 0.381301 18.1608 -0.00514482 16.0663 5.17197e-05C7.28556 5.17197e-05 0.136654 6.73361 0.133975 15.0095C0.129906 17.6433 0.863301 20.2315 2.26016 22.513L0 30.2916L8.44578 28.204C10.7821 29.4032 13.4003 30.0315 16.0609 30.0316H16.0676C24.8483 30.0316 31.9972 23.298 31.9999 15.0209C32.0064 13.0485 31.5977 11.0945 30.7974 9.27183C29.9971 7.4492 28.8212 5.79415 27.3376 4.40242Z" fill="#D0D0D0"/>
</g>
<defs>
<clipPath id="clip0_395_1238">
<rect width="34" height="30" fill="white"/>
</clipPath>
</defs>
</svg>
